<svg width="400" height="400" viewBox="0 0 400 400" fill="none" xmlns="http://www.w3.org/2000/svg">
<rect width="400" height="400" fill="#03011C"/>
<path d="M114 114.75C114 91.1398 133.14 72 156.75 72H199.5V157.5H156.75C133.14 157.5 114 138.36 114 114.75Z" fill="#F24E1E"/>
<path d="M114 200.25C114 176.64 133.14 157.5 156.75 157.5H199.5V243H156.75C133.14 243 114 223.86 114 200.25Z" fill="#A259FF"/>
<rect x="199.5" y="157.5" width="85.5" height="85.5" rx="42.75" fill="#1ABCFE"/>
<path d="M114 285.75C114 262.14 133.14 243 156.75 243H199.5V285.75C199.5 309.36 180.36 328.5 156.75 328.5C133.14 328.5 114 309.36 114 285.75Z" fill="#0ACF83"/>
<path d="M199.5 72H242.25C265.86 72 285 91.1398 285 114.75C285 138.36 265.86 157.5 242.25 157.5H199.5V72Z" fill="#FF7262"/>
</svg>
