<svg width="1919" height="977" viewBox="0 0 1919 977" fill="none" xmlns="http://www.w3.org/2000/svg">
<path d="M-125.73 503H146.27M-125.73 503V775H146.27V503M-125.73 503L-125.73 231M146.27 503L146.27 231M-125.73 231H146.27M-125.73 231V-41H146.27V231M146.892 775H418.892M146.892 775V1047H418.892V775M146.892 775V503M418.892 775V503M419.025 775H691.024M419.025 775V1047H691.024V775M419.025 775V503M691.024 775V503M146.892 503H418.892M146.892 503L146.892 231M418.892 503L418.892 231M419.025 503H691.024M419.025 503V231M691.024 503V231M146.892 231H418.892M146.892 231L146.892 -41H418.892L418.892 231M419.025 231H691.024M419.025 231V-41H691.024V231M1234.4 775H1506.4M1234.4 775V1047H1506.4V775M1234.4 775V503M1506.4 775V503M690.646 775H962.646M690.646 775V1047H962.646V775M690.646 775V503M962.646 775V503M690.646 503H962.646M690.646 503V231M962.646 503V231M690.646 231H962.646M690.646 231V-41H962.646V231M962.779 231H1234.78M962.779 231V503M962.779 231V-41H1234.78V231M1234.78 231V503M1234.78 503H962.779M1234.78 503V775M962.779 503V775M1506.53 775H1778.53M1506.53 775V1047H1778.53V775M1506.53 775V503M1778.53 775V503M1234.4 503H1506.4M1234.4 503V231M1506.4 503V231M1506.53 503H1778.53M1506.53 503V231M1778.53 503V231M1234.4 231H1506.4M1234.4 231V-41H1506.4V231M1506.53 231H1778.53M1506.53 231V-41H1778.53V231M962.779 775H1234.78M962.779 775V1047H1234.78V775M1778.73 775H2050.73M1778.73 775V1047H2050.73V775M1778.73 775V503M2050.73 775V503M1778.73 503H2050.73M1778.73 503V231M2050.73 503V231M1778.73 231H2050.73M1778.73 231V-41H2050.73V231" stroke="url(#paint0_linear_25_50)" stroke-opacity="0.6" stroke-width="1.5"/>
<defs>
<linearGradient id="paint0_linear_25_50" x1="2175.86" y1="-41" x2="2175.86" y2="231" gradientUnits="userSpaceOnUse">
<stop stop-color="#2F263E" stop-opacity="0.8"/>
<stop offset="1" stop-color="#734E44" stop-opacity="0.8"/>
</linearGradient>
</defs>
</svg>
